/* XPM */
static char *bitcoin16_xpm[] = {
/* width height num_colors chars_per_pixel */
"    16    16      256            2",
/* colors */
"`` c #ffffff",
"`. c #fefefe",
"`# c #fdfdfd",
"`a c #b9bbbd",
"`b c #a9adaf",
"`c c #d2d5d7",
"`d c #06131c",
"`e c #000000",
"`f c #6c7e87",
"`g c #fcfcfc",
"`h c #949393",
"`i c #b5b9ba",
"`j c #c2c6c7",
"`k c #525353",
"`l c #333232",
"`m c #0c222d",
"`n c #0b3648",
"`o c #496570",
"`p c #9b9b9b",
"`q c #969b9d",
"`r c #c3c5c6",
"`s c #edebeb",
"`t c #f9fafa",
"`u c #c6c6c6",
"`v c #adadad",
"`w c #89898a",
"`x c #0d191e",
"`y c #00070c",
"`z c #000002",
"`A c #163b49",
"`B c #336e81",
"`C c #183d49",
"`D c #000d17",
"`E c #0d2733",
"`F c #9ba0a2",
"`G c #e9e6e5",
"`H c #484848",
"`I c #050b0e",
"`J c #00090f",
"`K c #0c2630",
"`L c #0c2734",
"`M c #091b25",
"`N c #1e4d63",
"`O c #183d4d",
"`P c #03131e",
"`Q c #0a1d27",
"`R c #082e3e",
"`S c #163b4c",
"`T c #898d8f",
"`U c #545454",
"`V c #030f15",
"`W c #081821",
"`X c #17485b",
"`Y c #06151c",
"`Z c #000a13",
"`0 c #0f364b",
"`1 c #102e3c",
"`2 c #000408",
"`3 c #083f58",
"`4 c #5f7e8b",
"`5 c #010303",
"`6 c #061720",
"`7 c #00131e",
"`8 c #556970",
".` c #a2b0b4",
".. c #41555d",
".# c #030000",
".a c #020000",
".b c #0b222d",
".c c #144d67",
".d c #446d7e",
".e c #000001",
".f c #081b24",
".g c #001522",
".h c #42545d",
".i c #bcd1d7",
".j c #7196a1",
".k c #173b47",
".l c #00131d",
".m c #001721",
".n c #000c11",
".o c #020709",
".p c #174458",
".q c #1f5e78",
".r c #4a7686",
".s c #051015",
".t c #0e2a36",
".u c #011f2f",
".v c #213d4b",
".w c #4b7583",
".x c #4195ac",
".y c #2c7a97",
".z c #205c74",
".A c #153b4c",
".B c #1a495e",
".C c #2e6c85",
".D c #27667f",
".E c #365866",
".F c #444444",
".G c #000305",
".H c #07161e",
".I c #102d38",
".J c #0c3140",
".K c #133d51",
".L c #2d637c",
".M c #4082a0",
".N c #4284a0",
".O c #397994",
".P c #33728b",
".Q c #2c647c",
".R c #052f46",
".S c #7b8387",
".T c #bebebe",
".U c #717171",
".V c #010508",
".W c #030c11",
".X c #081a23",
".Y c #153644",
".Z c #2d6379",
".0 c #4388a1",
".1 c #468faa",
".2 c #337792",
".3 c #1e5672",
".4 c #001c32",
".5 c #454d53",
".6 c #fcf9f8",
".7 c #e7e7e7",
".8 c #00040e",
"#` c #001a2b",
"#. c #043046",
"## c #093d56",
"#a c #022d42",
"#b c #000b17",
"#c c #6f6c6a",
"#d c #f5f5f5",
"#e c #c5c5c5",
"#f c #b9b9b9",
"#g c #b8b8b7",
"#h c #b8b7b7",
"#i c #b9b8b8",
"#j c #babbbc",
"#k c #bbbec0",
"#l c #b7b4b3",
"#m c #b4b0ae",
"#n c #bebcbc",
"#o c #f4f4f4",
"#p c #000000",
"#q c #000000",
"#r c #000000",
"#s c #000000",
"#t c #000000",
"#u c #000000",
"#v c #000000",
"#w c #000000",
"#x c #000000",
"#y c #000000",
"#z c #000000",
"#A c #000000",
"#B c #000000",
"#C c #000000",
"#D c #000000",
"#E c #000000",
"#F c #000000",
"#G c #000000",
"#H c #000000",
"#I c #000000",
"#J c #000000",
"#K c #000000",
"#L c #000000",
"#M c #000000",
"#N c #000000",
"#O c #000000",
"#P c #000000",
"#Q c #000000",
"#R c #000000",
"#S c #000000",
"#T c #000000",
"#U c #000000",
"#V c #000000",
"#W c #000000",
"#X c #000000",
"#Y c #000000",
"#Z c #000000",
"#0 c #000000",
"#1 c #000000",
"#2 c #000000",
"#3 c #000000",
"#4 c #000000",
"#5 c #000000",
"#6 c #000000",
"#7 c #000000",
"#8 c #000000",
"a` c #000000",
"a. c #000000",
"a# c #000000",
"aa c #000000",
"ab c #000000",
"ac c #000000",
"ad c #000000",
"ae c #000000",
"af c #000000",
"ag c #000000",
"ah c #000000",
"ai c #000000",
"aj c #000000",
"ak c #000000",
"al c #000000",
"am c #000000",
"an c #000000",
"ao c #000000",
"ap c #000000",
"aq c #000000",
"ar c #000000",
"as c #000000",
"at c #000000",
"au c #000000",
"av c #000000",
"aw c #000000",
"ax c #000000",
"ay c #000000",
"az c #000000",
"aA c #000000",
"aB c #000000",
"aC c #000000",
"aD c #000000",
"aE c #000000",
"aF c #000000",
"aG c #000000",
"aH c #000000",
"aI c #000000",
"aJ c #000000",
"aK c #000000",
"aL c #000000",
"aM c #000000",
"aN c #000000",
"aO c #000000",
"aP c #000000",
"aQ c #000000",
"aR c #000000",
"aS c #000000",
"aT c #000000",
"aU c #000000",
"aV c #000000",
"aW c #000000",
"aX c #000000",
"aY c #000000",
"aZ c #000000",
"a0 c #000000",
"a1 c #000000",
"a2 c #000000",
"a3 c #000000",
"a4 c #000000",
"a5 c #000000",
"a6 c #000000",
"a7 c #000000",
"a8 c #000000",
/* pixels */
"`````````````.`````````#````````",
"```````````.```#`a`b`c``````````",
"```#`````````````d`e`f``````````",
"`````g`h`i`j`k`l`m`n`o`p`q`r`s`t",
"`u`v`w`e`x`y`z`e`A`B`C`e`D`E`F`G",
"`H`e`e`I`J`K`L`e`M`N`O`P`Q`R`S`T",
"`U`e`e`V`W`X`Y`e`Z`0`1`e`2`E`3`4",
"`U`e`5`6`7`8.`...#`e.a`e`e.b.c.d",
"`U`e.e.f.g.h.i.j.k.l.m.n.o.p.q.r",
"`U`e`e.s.t.u.v.w.x.y.z.A.B.C.D.E",
".F`e`e.G.H.I.J.K.L.M.N.O.P.Q.R.S",
".T.U`e`e.V.W.X.Y.Z.0.1.2.3.4.5.6",
"``.7`e`e`e`e`e.8#`#.###a#b`e#c``",
"``#d`u#e#f#g#h#i#j#k#j#l#m#n#o``",
"`.`````````````````````````````.",
"````````````````````````````````"
};
