/* XPM */
static char *bitcoin32_xpm[] = {
/* width height num_colors chars_per_pixel */
"    32    32      256            2",
/* colors */
"`` c #ffffff",
"`. c #646464",
"`# c #656565",
"`a c #939193",
"`b c #9a999a",
"`c c #969496",
"`d c #939293",
"`e c #908f90",
"`f c #8d8c8d",
"`g c #8c8b8c",
"`h c #8f8d8f",
"`i c #918f91",
"`j c #949294",
"`k c #959495",
"`l c #989798",
"`m c #969596",
"`n c #919091",
"`o c #898889",
"`p c #828182",
"`q c #868586",
"`r c #8e8d8e",
"`s c #9f9e9f",
"`t c #888688",
"`u c #7f7e7f",
"`v c #787678",
"`w c #777577",
"`x c #7c7a7c",
"`y c #838183",
"`z c #8a888a",
"`A c #868486",
"`B c #7f7d7f",
"`C c #767576",
"`D c #6f6e6f",
"`E c #696769",
"`F c #6f6d6f",
"`G c #817f81",
"`H c #797779",
"`I c #6b696b",
"`J c #656365",
"`K c #807f80",
"`L c #8d8b8d",
"`M c #888788",
"`N c #7c7b7c",
"`O c #7a797a",
"`P c #7a787a",
"`Q c #838283",
"`R c #8b8a8b",
"`S c #8a898a",
"`T c #949394",
"`U c #7e7c7e",
"`V c #7d7c7d",
"`W c #757475",
"`X c #737273",
"`Y c #727072",
"`Z c #747374",
"`0 c #666466",
"`1 c #656465",
"`2 c #646264",
"`3 c #636263",
"`4 c #636163",
"`5 c #686768",
"`6 c #727172",
"`7 c #6e6c6e",
"`8 c #615f61",
".` c #5e5d5e",
".. c #5c5a5c",
".# c #5b595b",
".a c #5a585a",
".b c #5c5b5c",
".c c #605e60",
".d c #6c6b6c",
".e c #716f71",
".f c #606060",
".g c #5d5b5d",
".h c #595759",
".i c #555355",
".j c #545254",
".k c #575657",
".l c #5f5d5f",
".m c #605f60",
".n c #616161",
".o c #5b5a5b",
".p c #575557",
".q c #565456",
".r c #585758",
".s c #6a6a6a",
".t c #6e6e6e",
".u c #969696",
".v c #c8c9ca",
".w c #c2c4c6",
".x c #9a9a9b",
".y c #d0d1d2",
".z c #c4c6c7",
".A c #a1a0a1",
".B c #c7c7c8",
".C c #c5c6c7",
".D c #9c9c9d",
".E c #d4d3d4",
".F c #d1d2d3",
".G c #a6a6a7",
".H c #d9d9da",
".I c #d6d6d8",
".J c #bbbcbc",
".K c #cbcccd",
".L c #c8c8ca",
".M c #aeafb0",
".N c #c4c4c5",
".O c #b7b8ba",
".P c #98999a",
".Q c #c5c6c8",
".R c #b8babd",
".S c #969797",
".T c #c8c9cb",
".U c #cecfd1",
".V c #a4a5a6",
".W c #c2c2c3",
".X c #d8dadb",
".Y c #9b9b9b",
".Z c #c9c9c9",
".0 c #e6e6e6",
".1 c #afafaf",
".2 c #e8e8e8",
".3 c #f5f5f6",
".4 c #e2e2e2",
".5 c #4d4b4d",
".6 c #d1d2d2",
".7 c #fafafb",
".8 c #bcbbbb",
"#` c #8e8e8e",
"#. c #949494",
"## c #cfcfcf",
"#a c #999999",
"#b c #848484",
"#c c #939393",
"#d c #000000",
"#e c #000000",
"#f c #000000",
"#g c #000000",
"#h c #000000",
"#i c #000000",
"#j c #000000",
"#k c #000000",
"#l c #000000",
"#m c #000000",
"#n c #000000",
"#o c #000000",
"#p c #000000",
"#q c #000000",
"#r c #000000",
"#s c #000000",
"#t c #000000",
"#u c #000000",
"#v c #000000",
"#w c #000000",
"#x c #000000",
"#y c #000000",
"#z c #000000",
"#A c #000000",
"#B c #000000",
"#C c #000000",
"#D c #000000",
"#E c #000000",
"#F c #000000",
"#G c #000000",
"#H c #000000",
"#I c #000000",
"#J c #000000",
"#K c #000000",
"#L c #000000",
"#M c #000000",
"#N c #000000",
"#O c #000000",
"#P c #000000",
"#Q c #000000",
"#R c #000000",
"#S c #000000",
"#T c #000000",
"#U c #000000",
"#V c #000000",
"#W c #000000",
"#X c #000000",
"#Y c #000000",
"#Z c #000000",
"#0 c #000000",
"#1 c #000000",
"#2 c #000000",
"#3 c #000000",
"#4 c #000000",
"#5 c #000000",
"#6 c #000000",
"#7 c #000000",
"#8 c #000000",
"a` c #000000",
"a. c #000000",
"a# c #000000",
"aa c #000000",
"ab c #000000",
"ac c #000000",
"ad c #000000",
"ae c #000000",
"af c #000000",
"ag c #000000",
"ah c #000000",
"ai c #000000",
"aj c #000000",
"ak c #000000",
"al c #000000",
"am c #000000",
"an c #000000",
"ao c #000000",
"ap c #000000",
"aq c #000000",
"ar c #000000",
"as c #000000",
"at c #000000",
"au c #000000",
"av c #000000",
"aw c #000000",
"ax c #000000",
"ay c #000000",
"az c #000000",
"aA c #000000",
"aB c #000000",
"aC c #000000",
"aD c #000000",
"aE c #000000",
"aF c #000000",
"aG c #000000",
"aH c #000000",
"aI c #000000",
"aJ c #000000",
"aK c #000000",
"aL c #000000",
"aM c #000000",
"aN c #000000",
"aO c #000000",
"aP c #000000",
"aQ c #000000",
"aR c #000000",
"aS c #000000",
"aT c #000000",
"aU c #000000",
"aV c #000000",
"aW c #000000",
"aX c #000000",
"aY c #000000",
"aZ c #000000",
"a0 c #000000",
"a1 c #000000",
"a2 c #000000",
"a3 c #000000",
"a4 c #000000",
"a5 c #000000",
"a6 c #000000",
"a7 c #000000",
"a8 c #000000",
/* pixels */
"````````````````````````````````````````````````````````````````",
"```````````````````.`.`.`.`.`.`.`.`.`.`.`.`.`.`.````````````````",
"`````````````````.`#`a`b`c`d`e`f`g`h`i`j`k`l`f`.`.``````````````",
"`````````````````.`m`b`n`o`p`.`.`.`.`.`p`q`f`k`r`.``````````````",
"`````````````````.`s`e`t`u`v`.```````.`w`x`y`z`j`.``````````````",
"`````````````````.`s`A`B`C`D`.```````.`E`F`C`G`f`.``````````````",
"`````````````````.`b`r`H`I`J`.`.`.`.`.`K`G`q`A`q`.``````````````",
"`````````````````.`r`L`M`G`N`O`P`Q`R`o`q`A`S`i`T`.``````````````",
"`````````````````.`Q`U`x`N`N`V`V`O`W`X`Y`Z`O`y`h`.``````````````",
"`````````````````.`x`X`F`I`E`0`1`2`3`4`J`5`F`W`K`.``````````````",
"`````````````````.`6`7`1`8.`...#.a.a.a.b.c`1.d.e`.``````````````",
"`````````````````..f`5`8.g.h.i.i.j.j.i.k.#.l`J.m`.``````````````",
"```````````````````..n.b.o.p.q.q.i.i.q.q.r.o.n`.````````````````",
"`````````````````````.`.`.`..s.t.t.t.s`.`.`.`.``````````````````",
"````````````````````````````.u.v.w.x.u``````````````````````````",
"````````````````````````````.u.y.z.A.u``````````````````````````",
"````````````````````````````.u.B.C.D.u``````````````````````````",
"````````````````````````````.u.E.F.G.u``````````````````````````",
"````````````````````````````.u.H.I.J.u``````````````````````````",
"````````````````````````````.u.K.L.M.u``````````````````````````",
"````````````````````````````.u.N.O.P.u``````````````````````````",
"````````````````````````````.u.Q.R.S.u``````````````````````````",
"````````````````````````````.u.T.U.V.u``````````````````````````",
"````````````````````````````.u.W.X.Y.u``````````````````````````",
"````````````````````````````.u.Z.0.1.u``````````````````````````",
"````````````````````````````.u.2.3.4.u``````````````````````````",
"``````````````````````.5.5.5.u.6.7.8.u.5.5.5````````````````````",
"````````````````````.5.5.5.5#`#.###a`S.5.5.5.5.5````````````````",
"``````````````````.5.5.5.5.5.5#b#c#b.5.5.5.5.5.5````````````````",
"``````````````````.5.5.5.5.5.5.5.5.5.5.5.5.5.5.5````````````````",
"````````````````````.5.5.5.5.5.5.5.5.5.5.5.5.5.5````````````````",
"````````````````````````````````````````````````````````````````"
};
