/* XPM */
static char *bitcoin64_xpm[] = {
/* width height num_colors chars_per_pixel */
"    64    64      256            2",
/* colors */
"`` c #040204",
"`. c #7c8284",
"`# c #444244",
"`a c #bcc2c4",
"`b c #5c6264",
"`c c #242224",
"`d c #9ca2a4",
"`e c #e4e2e4",
"`f c #6c7274",
"`g c #545254",
"`h c #343234",
"`i c #acb2b4",
"`j c #d4d2d4",
"`k c #8c9294",
"`l c #141214",
"`m c #6c6664",
"`n c #7c7674",
"`o c #545a5c",
"`p c #4c4a4c",
"`q c #f4f2f4",
"`r c #343a3c",
"`s c #bcbabc",
"`t c #c4cacc",
"`u c #2c2a2c",
"`v c #b4aeac",
"`w c #7c7e7c",
"`x c #9c9a9c",
"`y c #6c6e6c",
"`z c #0c0a0c",
"`A c #848a8c",
"`B c #acaaac",
"`C c #1c1a1c",
"`D c #645e5c",
"`E c #4c4644",
"`F c #ccc6cc",
"`G c #646a6c",
"`H c #eceaec",
"`I c #5c5654",
"`J c #3c3634",
"`K c #b4babc",
"`L c #dcdadc",
"`M c #9c969c",
"`N c #544e4c",
"`O c #f4fafc",
"`P c #443e3c",
"`Q c #c4babc",
"`R c #342e2c",
"`S c #c4c2c4",
"`T c #646264",
"`U c #2c2624",
"`V c #747274",
"`W c #b4b2b4",
"`X c #949294",
"`Y c #746a6c",
"`Z c #847a7c",
"`0 c #5c5a5c",
"`1 c #cccacc",
"`2 c #847e7c",
"`3 c #140e0c",
"`4 c #241e1c",
"`5 c #848284",
"`6 c #444644",
"`7 c #a4a2a4",
"`8 c #e4e6e4",
".` c #545654",
".. c #343634",
".# c #d4d6d4",
".a c #6c6a6c",
".b c #7c7a7c",
".c c #4c4e4c",
".d c #3c3a3c",
".e c #bcbebc",
".f c #2c2e2c",
".g c #746e74",
".h c #8c8a8c",
".i c #acaeac",
".j c #fcfafc",
".k c #c4c6c4",
".l c #646664",
".m c #747674",
".n c #b4b6b4",
".o c #949694",
".p c #5c5e5c",
".q c #cccecc",
".r c #040604",
".s c #242624",
".t c #141614",
".u c #6c666c",
".v c #7c767c",
".w c #f4f6f4",
".x c #c4aab4",
".y c #7c7e84",
".z c #9c9e9c",
".A c #6c6e74",
".B c #0c0e0c",
".C c #1c1e1c",
".D c #645e64",
".E c #4c464c",
".F c #eceeec",
".G c #5c565c",
".H c #3c363c",
".I c #dcdedc",
".J c #544e54",
".K c #443e44",
".L c #c4bebc",
".M c #342e34",
".N c #2c262c",
".O c #847e84",
".P c #140e14",
".Q c #241e24",
".R c #848684",
".S c #44464c",
".T c #a4a6ac",
".U c #e4e6ec",
".V c #54565c",
".W c #34363c",
".X c #d4d6dc",
".Y c #4c4e54",
".Z c #3c3e3c",
".0 c #bcbec4",
".1 c #2c2e34",
".2 c #8c8e8c",
".3 c #acaeb4",
".4 c #fcfefc",
".5 c #c4c6cc",
".6 c #64666c",
".7 c #74767c",
".8 c #b4b6bc",
"#` c #94969c",
"#. c #5c5e64",
"## c #ccced4",
"#a c #000000",
"#b c #000000",
"#c c #000000",
"#d c #000000",
"#e c #000000",
"#f c #000000",
"#g c #000000",
"#h c #000000",
"#i c #000000",
"#j c #000000",
"#k c #000000",
"#l c #000000",
"#m c #000000",
"#n c #000000",
"#o c #000000",
"#p c #000000",
"#q c #000000",
"#r c #000000",
"#s c #000000",
"#t c #000000",
"#u c #000000",
"#v c #000000",
"#w c #000000",
"#x c #000000",
"#y c #000000",
"#z c #000000",
"#A c #000000",
"#B c #000000",
"#C c #000000",
"#D c #000000",
"#E c #000000",
"#F c #000000",
"#G c #000000",
"#H c #000000",
"#I c #000000",
"#J c #000000",
"#K c #000000",
"#L c #000000",
"#M c #000000",
"#N c #000000",
"#O c #000000",
"#P c #000000",
"#Q c #000000",
"#R c #000000",
"#S c #000000",
"#T c #000000",
"#U c #000000",
"#V c #000000",
"#W c #000000",
"#X c #000000",
"#Y c #000000",
"#Z c #000000",
"#0 c #000000",
"#1 c #000000",
"#2 c #000000",
"#3 c #000000",
"#4 c #000000",
"#5 c #000000",
"#6 c #000000",
"#7 c #000000",
"#8 c #000000",
"a` c #000000",
"a. c #000000",
"a# c #000000",
"aa c #000000",
"ab c #000000",
"ac c #000000",
"ad c #000000",
"ae c #000000",
"af c #000000",
"ag c #000000",
"ah c #000000",
"ai c #000000",
"aj c #000000",
"ak c #000000",
"al c #000000",
"am c #000000",
"an c #000000",
"ao c #000000",
"ap c #000000",
"aq c #000000",
"ar c #000000",
"as c #000000",
"at c #000000",
"au c #000000",
"av c #000000",
"aw c #000000",
"ax c #000000",
"ay c #000000",
"az c #000000",
"aA c #000000",
"aB c #000000",
"aC c #000000",
"aD c #000000",
"aE c #000000",
"aF c #000000",
"aG c #000000",
"aH c #000000",
"aI c #000000",
"aJ c #000000",
"aK c #000000",
"aL c #000000",
"aM c #000000",
"aN c #000000",
"aO c #000000",
"aP c #000000",
"aQ c #000000",
"aR c #000000",
"aS c #000000",
"aT c #000000",
"aU c #000000",
"aV c #000000",
"aW c #000000",
"aX c #000000",
"aY c #000000",
"aZ c #000000",
"a0 c #000000",
"a1 c #000000",
"a2 c #000000",
"a3 c #000000",
"a4 c #000000",
"a5 c #000000",
"a6 c #000000",
"a7 c #000000",
"a8 c #000000",
/* pixels */
"````````````````````````````````````````````````````````````````````````````````````````````````````````````````````````````````",
"````````````````````````````````````````````````````````````````````````````````````````````````````````````````````````````````",
"````````````````````````````````````````````````````````````````````````````````````````````````````````````````````````````````",
"````````````````````````````````````````````````````````````````````````````````````````````````````````````````````````````````",
"````````````````````````````````````````````````````````...r..`o`y.b`V.l.V`6`h.r````````````````````````````````````````````````",
"``````````````````````````````````````````````````````.4.s.Y`T.g.m.m`V.a`T`0.p`o`p.C````````````````````````````````````````````",
"````````````````````````````````````````````````````.z`c.Y`I`o`g.J.c`p`p`p`6`p.J`0.p.c`c````````````````````````````````````````",
"``````````````````````````````````````````````````.s```6.G`o`I.``g`g.Y.c`p`p`E`6`6`p`0`0.S``.s``````````````````````````````````",
"````````````````````````````````````````````````````...V.p`0`0`0.V.``g`g.J.c.c`p.E.S`6`g.p.V.f``````````````````````````````````",
"````````````````````````````````````````````````.a`c`p`T`T`T#..p`0`0`0.``g`g.J.J.c`p`p`E`p.p#..Z``.r````````````````````````````",
"``````````````````````````````````````````````.s``.Z`T`G`m.l`T`T.D.p`D`0`0`0.`.``g`g`N.Y`p`p`I`b`p``.s``````````````````````````",
"````````````````````````````````````````````````.f`0`y.a.a.a.6`m.l`T`T.p`D`w`7`V`I.``g`g`g`N.c.G`T.Y``.Z````````````````````````",
"`````````````````````````````````````````````s`C`p`y`V`V`f`y`y.a.a.l.6`T.6`B`H`x`T`0.G.`.``g`g`N.`.l.````0``````````````````````",
"``````````````````````````````````````````.C``.Z.u.b.7.m`V`V`V.A`y.a.a.a.a`w`s`y.D`T.p`D`0.G`I.V.``0.l`p``.r````````````````````",
"``````````````````````````````````````````.4.M.l`w.7.m`V.g`y`y.a`y.a`y.a`T.d````..`0.6`T`D.p.p`0`0`I#..l.Z.4````````````````````",
"`````````````````````````````````````````z``.c.m.a#.`0.V.`.V`g`g.J`g`g`g`6``.C````.C.c.l.u`T`T`D.p`0`0`m`T.B`0``````````````````",
"`````````````````````````````````````````u.B.g`V.l`T`0`0.``g`g.c.c`p.S.K`c.4```````z``.Z.l`m.6.l`T`T`D.l.b.Y````````````````````",
"`````````````````````````````````````````g`u`5.A.l.l`b`0.``g`g.Y.c`p`p`6`#`u``.r``.f.r.K`#`#.c.G`T`m.6`T`5`V``.f````````````````",
"`````````````````````````````````````````2..`w`y.6.l`T.D`0.V.`.J.Y`p`p`6.c`g.Z.B````..`#.W`h`h`h`J`#`g`D.b`k...z````````````````",
"````````````````````````````````````````.b`J.A.a.a.l`T`b`T`T`0.``g.c.K`#`p.J`T.`.N.C`#.Z`J`h`h`R`u`u`u.M`E.h`g.4````````````````",
"`````````````````````````````````````````m.N.p.a`G.6.l`T.a`b.p`0.`.Y`p`p.Z.K`p.p`0`g.c.d.H`h`h`h`R`R`u`U.s.D.`.4````````````````",
"`````````````````````````````````````````E`C`#.a.a.6.l.a`G`T.p`0`0.`.c`p`6`#`#`#`p`p.K.d`J`J`h`h.M.f`u`u.N`g.c.4````````````````",
"`````````````````````````````````````````c`z`h.l.a`G.a`f`T`T#..p`0`0.V`N`p`p.Z.Z`#.Z.d.d`r`J`h`h`R.1`R.N.f`E.d`F````````````````",
"````````````````````````````````````````.r```c`g`y`G`y.g`T`b`D#.`0`0.`.V.Y`p`p.S`#.K.Z.d.d.H..`h`h`R`u`u`h`#.t.S````````````````",
"``````````````````````````````````````````.x`l...6.a.a`f.a`T`b.p`0`0.G.``g`N`p`p`6`#.Z`P.d`J.W`J.M.M.f`R.Z..````````````````````",
"``````````````````````````````````````````.B```4`p.a`G.l`y.a`T.p#.`0`o`0.p.`.c.E`p`E`#.d.d.d..`h`h`h`R.d.d``.C``````````````````",
"`````````````````````````````````````````````Y`z.f.l.a.6.l.l.a.l.p.p`0.``T`T.G.c`p.S`p`#.d.d.H..`h.M...d`C`X````````````````````",
"`````````````````````````````````````````````````l`N.v`G.6.l`T.l`T.p`0.G.V`0`T`0`p`p`p`E`#.d.H..`J`h.H`u````````````````````````",
"```````````````````````````````````````````````T`h.c`y`5.a`T`T`T.D.D.p`0.`.`.`.G`p.c.c`p.S`#.d`J...W`h```l``````````````````````",
"```````````````````````````````````````````````v.p.y.l`m.m.6`T`b`b.p.p`0.V`I`g.c.Y`g.c`p`E`6.d.H..`h.t`M````````````````````````",
"``````````````````````````````````````````````.4`y`x`k.a.J`0`T`T`T#..p`0.V.``g.Y`I.J.c`p`p.S`#.d`h`c````````````````````````````",
"````````````````````````````````````````````````.m`B.i#`.m`p.Z`0`b`D#.`0`0`g.J`g`g.c.c`p`p`E`6.H`U```l``````````````````````````",
"````````````````````````````````````````````.4`6.z`W`W.3`d`x.a.Z`#`0.p.p`0`0.`.``g`g`T.l.`.Y`J`u.B.g````````````````````````````",
"```````````````````````````````````````````p``.2.8`s.n.i`s`a`7.b`D.Z`#`p.V.`.G.`.G`y`S.k`Y.H`c`z````````````````````````````````",
"````````````````````````````````````````````.m`W.0.e.n`i`F`S`i.i`x.h.p`U`u`h`h.Z`p`T`B.n.Y.B``.p`1.Z.```````````````````````````",
"````````````````````````````````````````.4`p.T.k`S.0`W`S`a.e.L`B.m.R#.`u`R`u.s`U`c`c`N.l`#`6`6`6`6`6`6`6`6``````````````````````",
"``````````````````````````````````````.a``.o.k`1.k`s.e.k`S.e`1.R.C.H.d`6`6`6`6.S`6`6`#`6`6`E.S`6`E.S`6`E`6`6`6``````````````````",
"````````````````````````````````````````.b`a`j.q.5`K`S`S`a`1`a.b..`6`6`6`E.S`E`6`E.S`6`E.S`6`6.E`6`6.S`6.S`6`6`6````````````````",
"````````````````````````````````````.4.c.n.#`j.q.e`S`a.5`1.k.o..`#`6`6.S`6`6`6.S`6`E.S`6`6`E`6`6`6`E`6`E`6`E.S`6`6``````````````",
"```````````````````````````````````V```x`j`L.X`t.e.L`1`1`1.T`p.d`6.E`6`E`6.E`6`E`6`6`6`E.S`6.S`E.S`6.S`6.S`6`E`6`6`6````````````",
"````````````````````````````````.r```w.0.#.X.#.L`a.5.q`t.o.p`h`6`6`6`6.S`6`6`6.S`E.S`6`6`6`E`6`6`6`E`6`E`6`6.S`E`6`6````````````",
"````````````````````````````````.4`0`B`t.q.#.k.0`S`j`j`x....`6`E`6.E`6`E`6.E`6`6`6`E.S`E.S`6.S`E.S`6.S`6.E`6`6.S`E`6````````````",
"```````````````````````````````w`3.o`s`S`t.5.e.e`j.#`1`A`h`6`6`6.S`6`6.S`6`6`E.S`6`6`6`6`6`E`6`6`6`E`6`6`6`E`6`6.S`6````````````",
"````````````````````````````.r``.y.i`K.0`S`s.e`F.I`j.i.`.d`6`E`6`E`6`E`6`E.S`6`E.S`E.S`E.S`6.S`E.S`6.S`E.S`6.S`E`6`6````````````",
"````````````````````````````.4`D`7.3`W`K.n.e.0.#.n`x`f`J`#`6.S`6.S`6.S`6`6`E.S`6`6`6`6`6`6`E`6`6`6`E`6`6`6`E`6.S`E``````````````",
"```````````````````````````w`C`x.n`i.3`W`s`s`1.q.R`c.d`#`6`6`E`6`E`6`E.S`6`6`6`E.S`E.S`E.S`6.S`E.S`6.S`E.S`6`6`6````````````````",
"`````````````````````````z``.h`s.0.n.3`i`s`a.k.z#..H`6`6`6.E`6.S`6.S`6`E.S`E.S`6`6`6`6`6`6`E`6`6`6`E`6`6`6.E`6``````````````````",
"````````````````````````.4.l`K.q.5`s`i`s`s`S`s`V.s`6`6`E`6`6`6`E`6`E.S`6`6`6`6`E.S`E.S`E.S`6.S`E.S`6.S`E`6`6````````````````````",
"``````````````````````.i`l`B`L.#.q`s`K.n`a`W.7`6.Z.E`6.S`6.E`6.S`6`6`E`6.E`6.S`6`6`6`6`6`6`E`6`6`6`E`6.S````````````````````````",
"````````````````````.r``.2`L`8`L##`s.n.L`K`B`g.d`6`6`6`E`6`6`6`E.S`6.S`6`6`E`6`E.S`E.S`E.S`6.S`E.S`6`6``````````````````````````",
"````````````````.j.q`q.k`L.w`H`e.k`K`s`t`v.``r`6`6.E`6.S`6.E`6`6`E`6`E`6.S`6.S`6`6`6`6`6`6`E````````````````````````````````````",
"````````````````.q.4`H.w.j.j.w.X.e`W##`S`k`#`#`6`6`6`6`E`6`6.S`6.S`6.S``````````````````````````````````````````````````````````",
"````````````````.d``.e.j.4.4.w.k`W`1`j`A.d.Z`6`6.E`6.S`6.S`E`6`E`6`E````````````````````````````````````````````````````````````",
"````````````````.4.l.#.4.4.4`L`W.e`8.i`6`P`6`E`6`6`E`6`E`6.S`6.S````````````````````````````````````````````````````````````````",
"``````````````.2.C`s.j.4.4`H`s.n`e.X`T.d`6`6.S`6.S`6.S`6`6`E`6``````````````````````````````````````````````````````````````````",
"``````````````.4.h`e.4.4.j.k.3.#.w`s`6`#`6`6`E`6`E`6`E.S`6.S````````````````````````````````````````````````````````````````````",
"``````````````.4`5`8.4.4.X`W.L.w`8`W`g.Z`6.S`6.S`6.S`6`E````````````````````````````````````````````````````````````````````````",
"`````````````l.4.a.I.4`H`s`i`H`q`S.m.W`6`E`6`E`6`E`6````````````````````````````````````````````````````````````````````````````",
"````````````..```6`1.j.q.e`S.q`X`b.Z`#`6`6.S`6.S`6``````````````````````````````````````````````````````````````````````````````",
"````````````.Z`g`U`k`s`x`w.p`#...d`#`6`6`E`6`E``````````````````````````````````````````````````````````````````````````````````",
"`````````````6`o.Z`h..`h`h.d.Z`6`6`6`6.S`6.S````````````````````````````````````````````````````````````````````````````````````",
"`````````````6`6`E`6`6`6`6`E.S`E.S`E`6`E`6`6````````````````````````````````````````````````````````````````````````````````````",
"```````````````p`p`p.E`6`p`6`6`6`6`6````````````````````````````````````````````````````````````````````````````````````````````",
"````````````````````````````````````````````````````````````````````````````````````````````````````````````````````````````````"
};
